<svg xmlns="http://www.w3.org/2000/svg" width="100" viewBox="0 0 75 60" height="80" version="1.0"><defs><clipPath id="a"><path d="M0 16.023h27.75v27.75H0zm0 0"/></clipPath></defs><g clip-path="url(#a)"><path fill="#fd1926" d="M27.758 29.906c0 7.664-6.211 13.875-13.875 13.875S.008 37.571.008 29.906c0-7.66 6.21-13.875 13.875-13.875 7.664 0 13.875 6.215 13.875 13.875"/><path fill="#be131d" d="M13.883 43.242C6.52 43.242.55 37.27.55 29.906c0-7.363 5.969-13.332 13.332-13.332s13.332 5.969 13.332 13.332c0 7.364-5.969 13.336-13.332 13.336m0-26.199c-7.106 0-12.863 5.762-12.863 12.863 0 7.106 5.757 12.864 12.863 12.864 7.105 0 12.863-5.758 12.863-12.864 0-7.101-5.758-12.863-12.863-12.863"/></g><path fill="#8f0e16" d="M13.883 42.77c-7.106 0-12.863-5.758-12.863-12.864 0-7.101 5.757-12.863 12.863-12.863 7.105 0 12.863 5.762 12.863 12.863 0 7.106-5.758 12.864-12.863 12.864m0-23.907c-6.098 0-11.043 4.946-11.043 11.043 0 6.098 4.945 11.043 11.043 11.043 6.097 0 11.043-4.945 11.043-11.043 0-6.097-4.946-11.043-11.043-11.043"/><path fill="#bd0f28" d="M24.926 29.906c0 6.098-4.946 11.043-11.043 11.043-6.098 0-11.043-4.945-11.043-11.043 0-6.097 4.945-11.043 11.043-11.043 6.097 0 11.043 4.946 11.043 11.043"/><path fill="#6c1325" d="M6.965 25.488c-.086-.508.172-.86.265-1.297a2.36 2.36 0 01.43-.886v-.696c-.2.141-.348.266-.402.348-.235.348-1.133 1.918-.606 3.375.227.621.57 1.203 1.008 1.695v-.738a5.691 5.691 0 01-.695-1.8"/><path fill="#8a091f" d="M7.605 26.14c-.316-.574-.164-1.214.055-1.73v-1.105c-.273.367-.383.68-.43.886-.093.438-.351.79-.265 1.297a5.69 5.69 0 00.695 1.801v-1.043a1.357 1.357 0 00-.055-.105"/><path fill="#9c0f22" d="M7.605 26.14c.02.036.04.07.055.106V24.41c-.219.516-.37 1.156-.055 1.73"/><path fill="#6c1325" d="M6.285 35.441c-.387-.343-.402-.78-.605-1.18-.098-.19-.207-.503-.22-.96l-.437-.543c-.066.234-.105.43-.097.527.035.414.316 2.207 1.64 3.008a5.244 5.244 0 001.848.691l-.46-.578a5.594 5.594 0 01-1.669-.965"/><path fill="#8a091f" d="M7.191 35.55c-.605-.253-.886-.847-1.039-1.386l-.691-.863c.012.457.121.77.219.96.203.4.218.837.605 1.18.192.172.828.66 1.668.965l-.652-.808-.11-.047"/><path fill="#9c0f22" d="M7.191 35.55l.11.048-1.149-1.434c.153.54.434 1.133 1.04 1.387"/><path fill="#6c1325" d="M9.879 34.285l.644.352a4.632 4.632 0 001.497-.633l-.383-.207c-.563.332-1.184.46-1.758.488m-3.867-3.566l-.356-.196c.016.446.047 1.059.102 1.508l.61.332c-.173-.386-.317-.918-.356-1.644"/><path fill="#8a091f" d="M8.969 33.785l.91.5c.574-.027 1.195-.156 1.758-.488l-.414-.227c-.75.278-1.465.223-2.254.215M6.871 32.23c-.23-.343-.328-.582-.344-1.23l-.515-.281c.039.726.183 1.258.355 1.644l.961.528c-.191-.25-.344-.496-.457-.66"/><path fill="#9c0f22" d="M8.414 33.207c-.578-.195-1.328-1.133-1.578-2.039L6.527 31c.016.648.114.887.344 1.23.113.165.266.41.457.66l1.64.895c.79.008 1.505.063 2.255-.215l-.461-.25c-.805.157-1.828.059-2.348-.113"/><path fill="#b2162e" d="M9.867 32.895c-1.113 0-2.055-.235-2.46-1.415l-.571-.312c.25.906 1 1.844 1.578 2.039.52.172 1.543.27 2.348.113l-.782-.43c-.039 0-.078.005-.113.005"/><path fill="#c7152f" d="M8.129 31.875l-.723-.395c.407 1.18 1.348 1.415 2.461 1.415.035 0 .074-.004.113-.004l-.582-.32c-.585.023-.996-.239-1.27-.696"/><path fill="#bd0f28" d="M9.398 32.57l-1.27-.695c.274.457.684.719 1.27.695"/><path fill="#6c1325" d="M7.66 27.29v.737l.008.008v-.734l-.008-.012"/><path fill="#8a091f" d="M7.66 26.246v1.043l.008.012v-1.04l-.008-.015"/><path fill="#6c1325" d="M12.102 26.973a3.107 3.107 0 01-.43-.957l-.3.308c.097.32.23.63.405.93.055.094.118.187.184.281l.316-.32a2.738 2.738 0 01-.175-.242m4.492-5.418c.36.101.66.23.91.37l.273-.277c-.437-.265-.77-.351-.77-.351s-.222-.059-.534-.137l-.285.29c.128.027.265.062.406.105"/><path fill="#8a091f" d="M12.102 26.25a3.42 3.42 0 01-.098-.57l-.332.336c.082.324.223.644.43.957.054.086.113.164.175.242l.176-.18a2.758 2.758 0 01-.351-.785m4.546-4.113c.176.058.329.117.47.18l.386-.391c-.25-.14-.55-.27-.91-.371a4.82 4.82 0 00-.407-.106l-.414.418c.23.063.516.149.875.27"/><path fill="#9c0f22" d="M16.133 22.2c.27.081.523.21.75.355l.234-.239a5.167 5.167 0 00-.469-.18 15.28 15.28 0 00-.875-.269l-.246.246c.215.004.418.032.606.086m-3.695 3.922c-.079-.23-.09-.512-.067-.812l-.367.37c.016.184.047.376.098.571.07.27.191.535.351.785l.242-.242a5.922 5.922 0 01-.258-.672"/><path fill="#b2162e" d="M15.43 22.578c.492.027.863.14 1.152.281l.3-.304a3.08 3.08 0 00-.75-.356 2.312 2.312 0 00-.605-.086l-.453.465c.114-.008.23-.012.356 0m-2.434 2.098l-.625.633c-.023.3-.012.582.066.812.07.223.157.45.258.672l.285-.29a4.124 4.124 0 01.016-1.827"/><path fill="#c7152f" d="M13.441 24.3l.024-.097-.469.473a4.124 4.124 0 00-.016 1.828l.274-.281c-.082-.614.078-1.317.187-1.922m2.099-1.196c.241.024.448.09.624.172l.418-.418a2.96 2.96 0 00-1.152-.28 2.159 2.159 0 00-.356 0l-.578.581c.305-.082.656-.094 1.043-.055"/><path fill="#bd0f28" d="M13.766 25.563c.02-1.247.308-1.606 1.152-1.797a1.79 1.79 0 01.777-.008l.47-.48a1.898 1.898 0 00-.626-.173c-.387-.039-.738-.027-1.043.055l-1.031 1.043a3.685 3.685 0 00-.024.098c-.109.605-.27 1.308-.187 1.922l.512-.516c0-.047-.004-.094 0-.145"/><path fill="#cf0c2e" d="M14.543 24.395c.184-.141.422-.16.648-.133l.504-.504a1.803 1.803 0 00-.777.008c-.844.191-1.133.55-1.152 1.797-.004.05 0 .097 0 .144l.492-.496c-.024-.309.043-.633.285-.816"/><path fill="#bd0f28" d="M14.543 24.395c-.242.183-.309.507-.285.816l.933-.95c-.226-.027-.464-.007-.648.134"/><path fill="#6c1325" d="M10.473 38.168l-.36.125c.114.484.301.883.485 1.18l.367-.125c-.32-.473-.445-.887-.492-1.18m7.539-1.215l.422-.144a5.139 5.139 0 00-.368-1.22l-.457.157c.172.348.317.75.403 1.207"/><path fill="#8a091f" d="M17.773 37.035l.239-.082a4.66 4.66 0 00-.403-1.207l-.172.059c.176.394.293.816.336 1.23m-6.843.981l-.457.152c.047.293.172.707.492 1.18l.52-.18c-.458-.563-.544-.973-.555-1.152"/><path fill="#9c0f22" d="M17.45 37.145l.323-.11a4.094 4.094 0 00-.335-1.23l-.176.058c.16.387.203.836.187 1.282m-6.156.745l-.363.126c.011.18.097.59.554 1.152l.317-.105c-.301-.5-.457-1-.508-1.172"/><path fill="#b2162e" d="M17.066 37.273l.383-.128c.016-.446-.027-.895-.187-1.282l-.278.094c.188.367.196.836.082 1.316m-5.257.653a1.758 1.758 0 01-.032-.2l-.484.165c.05.172.207.672.508 1.172l.406-.137c-.406-.535-.398-1-.398-1"/><path fill="#c7152f" d="M16.668 36.258c.172.39.152.773.027 1.14l.371-.125c.114-.48.106-.949-.082-1.316l-.398.137c.027.054.059.11.082.164m-4.332 1.316v-.035l-.559.188c.008.066.016.132.032.199 0 0-.008.465.398 1l.559-.192c-.434-.55-.43-1.16-.43-1.16"/><path fill="#bd0f28" d="M16.008 37.633l.687-.235c.125-.367.145-.75-.027-1.14-.023-.055-.055-.11-.082-.164l-.688.234c.239.262.415.629.11 1.305m-3.242 1.101l.636-.214c-.343-.27-.5-.579-.5-.579a1.026 1.026 0 01-.117-.558l-.45.156v.035s-.003.61.43 1.16"/><path fill="#cf0c2e" d="M15.43 37.11c.058.136.035.453-.086.75l.664-.227c.305-.676.129-1.043-.11-1.305l-.78.266c.167.11.23.336.312.515m-1.895.637c-.125-.25-.086-.457.04-.629l-.79.266c-.015.18.02.363.117.558 0 0 .157.309.5.579l.672-.23a2.438 2.438 0 01-.539-.544"/><path fill="#bd0f28" d="M14.074 37.434c.047-.266.559-.407.696-.114.136.293-.028.66-.325.645-.297-.012-.37-.531-.37-.531m1.355-.325c-.082-.18-.145-.406-.313-.515l-1.543.523c-.125.172-.164.38-.039.63 0 0 .223.323.54.542l1.269-.43c.12-.297.144-.613.086-.75"/><path fill="#da2d5b" d="M14.77 37.32c-.137-.293-.649-.152-.696.114 0 0 .074.52.371.53.297.016.461-.35.325-.644"/><path fill="#6c1325" d="M17.734 35.535l-.199.324c.395.305.79.493 1.117.606l.207-.332a2.888 2.888 0 01-1.125-.598m5.059-5.715l.238-.383a5.212 5.212 0 00-1.058-.707l-.254.41c.355.16.718.38 1.074.68"/><path fill="#8a091f" d="M22.66 30.031l.133-.21a4.535 4.535 0 00-1.074-.68l-.098.152c.39.195.746.445 1.04.738m-4.673 5.094l-.254.41c.22.195.578.438 1.125.598l.293-.465c-.715-.148-1.039-.41-1.164-.543"/><path fill="#9c0f22" d="M22.48 30.324l.18-.293a4.002 4.002 0 00-1.039-.738l-.098.16c.372.195.688.512.957.871M18.191 34.8l-.203.325c.125.133.45.395 1.164.543l.176-.285a4.99 4.99 0 01-1.137-.582"/><path fill="#b2162e" d="M22.266 30.668l.214-.344c-.27-.36-.585-.676-.957-.87l-.152.245c.375.164.68.524.895.969M18.613 34.5a.978.978 0 01-.148-.137l-.274.438c.149.101.586.39 1.137.582l.227-.363c-.653-.157-.942-.52-.942-.52"/><path fill="#c7152f" d="M21.316 30.133c.38.191.606.5.743.863l.207-.328c-.215-.445-.52-.805-.895-.969l-.223.36c.055.02.114.046.168.074m-2.519 3.762l-.024-.028-.308.496c.047.051.094.098.148.137 0 0 .29.363.942.52l.308-.5c-.683-.149-1.066-.625-1.066-.625"/><path fill="#bd0f28" d="M21.676 31.613l.383-.617c-.137-.363-.364-.672-.743-.863a1.574 1.574 0 00-.168-.074l-.382.613c.347.05.718.226.91.941m-1.813 2.907l.356-.57c-.434.007-.75-.13-.75-.13a1.06 1.06 0 01-.446-.355l-.25.402.024.028s.383.476 1.066.625"/><path fill="#cf0c2e" d="M20.898 31.578c.133.067.313.324.407.629l.37-.594c-.19-.715-.562-.89-.91-.941l-.437.7c.2-.02.39.116.57.206m-1.062 1.688c-.258-.114-.36-.297-.371-.508l-.442.707c.102.144.247.265.446.355 0 0 .316.137.75.13l.379-.602c-.383.03-.762-.082-.762-.082"/><path fill="#bd0f28" d="M20.05 32.688c-.128-.243.177-.672.47-.532s.398.528.16.703c-.242.18-.63-.172-.63-.172zm.848-1.11c-.18-.09-.37-.226-.57-.207l-.863 1.387c.012.21.113.394.37.508 0 0 .38.113.763.082l.707-1.141c-.094-.305-.274-.562-.407-.629"/><path fill="#da2d5b" d="M20.52 32.156c-.293-.14-.598.29-.47.532 0 0 .387.351.63.171.238-.175.133-.562-.16-.703"/><path fill="#6c1325" d="M6.73 28.723l-.199.32c.395.309.79.492 1.121.605l.203-.328c-.546-.16-.906-.402-1.125-.597m5.063-5.719l.234-.379a5.2 5.2 0 00-1.054-.71l-.258.41c.355.16.719.382 1.078.679"/><path fill="#8a091f" d="M11.656 23.219l.137-.215a4.78 4.78 0 00-1.078-.68l-.094.156a3.9 3.9 0 011.035.739m-4.668 5.094l-.258.41c.22.195.579.437 1.125.597l.293-.468c-.714-.145-1.039-.407-1.16-.54"/><path fill="#9c0f22" d="M11.477 23.508l.18-.29a3.891 3.891 0 00-1.036-.738l-.101.157c.37.195.687.515.957.87m-4.289 4.481l-.2.325c.121.132.446.394 1.16.539l.176-.282a5.16 5.16 0 01-1.136-.582"/><path fill="#b2162e" d="M11.262 23.852l.215-.344c-.27-.356-.586-.676-.957-.871l-.153.25c.375.164.68.52.895.965M7.61 27.688a2.46 2.46 0 01-.15-.137l-.272.437a5.16 5.16 0 001.136.582l.227-.363c-.653-.156-.942-.52-.942-.52"/><path fill="#c7152f" d="M10.313 23.316c.378.196.605.504.742.868l.207-.332c-.215-.446-.52-.801-.895-.965l-.222.355c.054.024.113.047.168.074m-2.52 3.766l-.023-.027-.31.496c.048.047.099.094.15.137 0 0 .288.363.94.519l.313-.5a2.066 2.066 0 01-1.07-.625"/><path fill="#bd0f28" d="M10.672 24.8l.383-.616c-.137-.364-.364-.672-.742-.868-.055-.027-.114-.05-.168-.074l-.383.617c.347.051.718.223.91.942m-1.809 2.906l.352-.57c-.434.008-.75-.133-.75-.133a.971.971 0 01-.442-.356l-.253.407.023.027s.387.473 1.07.625"/><path fill="#cf0c2e" d="M9.895 24.762c.132.066.312.328.406.633l.37-.594c-.19-.719-.562-.89-.91-.942l-.437.7c.2-.02.39.113.57.203m-1.062 1.691c-.258-.113-.36-.3-.371-.512l-.438.707c.098.149.243.27.442.356 0 0 .316.14.75.133l.379-.606c-.383.032-.762-.078-.762-.078"/><path fill="#bd0f28" d="M9.05 25.871c-.132-.238.177-.668.466-.531.293.14.398.531.16.707-.239.176-.625-.176-.625-.176m.844-1.11c-.18-.09-.372-.222-.57-.202L8.46 25.94c.012.211.113.399.371.512 0 0 .379.11.762.078l.707-1.136c-.094-.305-.274-.567-.406-.633"/><path fill="#da2d5b" d="M9.516 25.34c-.29-.137-.598.293-.465.531 0 0 .386.352.625.176.238-.176.133-.567-.16-.707"/><path fill="#6c1325" d="M10.219 29.043v.445l.008.004v-.449h-.008"/><path fill="#8a091f" d="M10.219 28.79v.253h.008v-.25l-.008-.004"/><path fill="#9c0f22" d="M10.219 28.45v.34l.008.003v-.344h-.008"/><path fill="#b2162e" d="M10.219 28.04v.41h.008v-.403l-.008-.008"/><path fill="#c7152f" d="M10.219 27.648v.391l.008.008v-.39l-.008-.009"/><path fill="#bd0f28" d="M10.219 26.922v.726l.008.008v-.726l-.008-.008"/><path fill="#6c1325" d="M11.762 31.516c.09-.196.39-.457.785-.73l-.629-.122c-.281.262-.508.547-.629.856a3.24 3.24 0 00-.101.296l.37.075a1.43 1.43 0 01.204-.375m7.191 1.812l.477.094a6.254 6.254 0 000-1.297l-.61-.117c.098.375.16.824.133 1.32"/><path fill="#8a091f" d="M18.777 33.293l.176.035a4.31 4.31 0 00-.133-1.32l-.133-.028c.106.415.133.868.09 1.313m-6.691-1.395c.137-.312.547-.668 1.043-1l-.582-.113c-.395.274-.695.535-.785.73 0 0-.106.126-.203.376l.476.093a.438.438 0 01.05-.086"/><path fill="#9c0f22" d="M18.543 32.59c.062.222.078.445.05.668l.184.035a3.868 3.868 0 00-.09-1.313l-.44-.085c.128.234.23.472.296.695M12.422 32c.168-.39.566-.746 1.062-1.031l-.355-.07c-.496.331-.906.687-1.043 1 0 0-.024.027-.05.085l.374.07.012-.054"/><path fill="#b2162e" d="M18.277 32.887c.028.105.032.21.028.316l.289.055a1.686 1.686 0 00-.051-.668 3.609 3.609 0 00-.297-.695l-.512-.098c.25.348.457.726.543 1.09M12.422 32l-.012.055.504.097c.223-.492.652-.836 1.137-1.074l-.567-.11c-.496.286-.894.641-1.062 1.032"/><path fill="#c7152f" d="M14.914 31.246l-.863-.168c-.485.238-.914.582-1.137 1.074l.578.114c.313-.57.863-.871 1.422-1.02m2.981 1.875l.41.082c.004-.105 0-.21-.028-.316-.086-.364-.293-.742-.543-1.09l-.382-.074c.289.347.543.84.543 1.398"/><path fill="#bd0f28" d="M15.688 31.719c1.011-.074 1.265.41 1.367.836.035.125.09.27.125.43l.715.136c0-.559-.254-1.05-.543-1.398l-2.438-.477c-.559.149-1.11.45-1.422 1.02l.465.09c.309-.43.973-.579 1.73-.637"/><path fill="#cf0c2e" d="M16.117 32.617a.472.472 0 01.25.207l.813.16c-.035-.16-.09-.304-.125-.43-.102-.425-.356-.91-1.367-.835-.758.058-1.422.207-1.731.636l.828.165c.406-.176 1.055-.02 1.332.097"/><path fill="#bd0f28" d="M16.117 32.617c-.277-.117-.926-.273-1.332-.097l1.582.304a.472.472 0 00-.25-.207"/><path fill="#6c1325" d="M14.543 26.371c.094-.2.395-.46.785-.73l-.629-.121c-.281.261-.504.546-.625.855-.043.102-.074.2-.105.297l.375.074c.097-.25.199-.375.199-.375m7.195 1.813l.473.093c.047-.445.047-.886.004-1.297l-.613-.117c.101.375.16.825.136 1.32"/><path fill="#8a091f" d="M21.559 28.148l.18.036a4.303 4.303 0 00-.137-1.32l-.13-.028c.102.414.13.867.087 1.312m-6.692-1.394c.14-.313.547-.668 1.043-1l-.582-.113c-.39.27-.691.53-.785.73 0 0-.102.125-.2.375l.473.09c.032-.055.051-.082.051-.082"/><path fill="#9c0f22" d="M21.324 27.445c.067.223.078.446.051.668l.184.035a3.97 3.97 0 00-.086-1.312l-.446-.086c.133.234.235.473.297.695m-6.117-.59c.164-.39.563-.746 1.063-1.03l-.36-.071c-.496.332-.902.687-1.043 1 0 0-.02.027-.05.082l.374.074c.008-.035.016-.055.016-.055"/><path fill="#b2162e" d="M21.063 27.742c.023.106.03.211.027.317l.285.054a1.618 1.618 0 00-.05-.668 3.179 3.179 0 00-.298-.695l-.511-.098c.25.348.457.727.547 1.09m-5.856-.887s-.008.02-.016.055l.508.098c.223-.492.653-.836 1.137-1.074l-.566-.11c-.5.285-.899.64-1.063 1.031"/><path fill="#c7152f" d="M17.695 26.102l-.86-.168c-.483.238-.913.582-1.136 1.074l.574.113c.317-.57.864-.871 1.422-1.02m2.981 1.876l.414.082a1.24 1.24 0 00-.027-.317c-.09-.363-.297-.742-.547-1.09l-.383-.078c.293.348.547.84.543 1.403"/><path fill="#bd0f28" d="M18.469 26.574c1.015-.074 1.265.406 1.37.832.032.13.087.274.126.434l.71.137c.005-.563-.25-1.055-.542-1.403l-2.438-.472c-.558.148-1.105.449-1.422 1.02l.47.089c.308-.43.972-.578 1.726-.637"/><path fill="#cf0c2e" d="M18.898 27.473a.498.498 0 01.254.207l.813.16c-.04-.16-.094-.305-.125-.434-.106-.426-.356-.906-1.371-.832-.754.059-1.418.207-1.727.637l.824.16c.41-.172 1.055-.016 1.332.102"/><path fill="#bd0f28" d="M18.898 27.473c-.277-.118-.921-.274-1.332-.102l1.586.309a.498.498 0 00-.254-.207"/><path fill="#6c1325" d="M4.668 27.031c.215-.054.605.012 1.062.145l-.3-.563c-.383-.05-.746-.047-1.059.055-.105.031-.203.07-.297.11l.18.335c.254-.082.414-.082.414-.082m3.148 6.715l.23.43a6.566 6.566 0 001.005-.82l-.297-.547a4.17 4.17 0 01-.938.937"/><path fill="#8a091f" d="M7.73 33.59l.086.156a4.17 4.17 0 00.938-.937l-.063-.121a3.858 3.858 0 01-.96.902m-3.153-6.067c.328-.09.863 0 1.434.176l-.282-.523c-.457-.133-.847-.2-1.062-.145 0 0-.16 0-.414.082l.226.426c.063-.016.098-.016.098-.016"/><path fill="#9c0f22" d="M8.129 32.965c-.133.187-.297.34-.484.46l.085.165c.375-.25.707-.559.961-.903l-.21-.394a3.87 3.87 0 01-.352.672m-3.414-5.117c.406-.118.933-.032 1.469.172l-.172-.32c-.57-.177-1.106-.266-1.434-.177 0 0-.035 0-.098.016l.184.336.05-.027"/><path fill="#b2162e" d="M7.73 32.945c-.062.086-.14.157-.226.223l.14.258c.188-.121.352-.274.485-.461a3.87 3.87 0 00.351-.672l-.25-.461c-.109.414-.273.816-.5 1.113m-3.015-5.097l-.05.027.241.453c.524-.14 1.063-.023 1.551.2l-.273-.508c-.536-.204-1.063-.29-1.47-.172"/><path fill="#c7152f" d="M6.871 29.3l-.414-.773c-.488-.222-1.027-.34-1.55-.199l.277.516c.64-.114 1.218.117 1.687.457m.434 3.496l.199.371c.086-.066.164-.137.226-.223.227-.297.391-.699.5-1.113l-.183-.344c-.086.446-.305.953-.742 1.309"/><path fill="#bd0f28" d="M6.996 30.2c.7.738.484 1.238.223 1.59-.082.105-.157.237-.258.366l.344.64c.437-.355.656-.862.742-1.308L6.87 29.301c-.469-.34-1.047-.57-1.687-.457l.226.422c.527-.036 1.063.386 1.586.933"/><path fill="#cf0c2e" d="M6.574 31.102a.478.478 0 01-.004.324l.39.73c.103-.129.177-.261.259-.367.261-.352.476-.852-.223-1.59-.523-.547-1.059-.969-1.586-.933l.399.742c.39.207.68.805.765 1.094"/><path fill="#bd0f28" d="M6.574 31.102c-.086-.29-.375-.887-.765-1.094l.761 1.418a.478.478 0 00.004-.324"/><path fill="#6c1325" d="M9.438 21.684c.09-.2.39-.457.785-.73l-.63-.122c-.28.262-.507.547-.628.855-.04.102-.074.2-.102.297l.371.075a1.43 1.43 0 01.204-.375m7.191 1.812l.476.094a6.254 6.254 0 000-1.297l-.609-.117c.098.375.16.824.133 1.32"/><path fill="#8a091f" d="M16.453 23.46l.176.036a4.31 4.31 0 00-.133-1.32l-.133-.028c.102.415.133.868.09 1.313m-6.691-1.395c.136-.312.547-.668 1.043-1l-.582-.113c-.395.274-.696.531-.786.73 0 0-.105.126-.203.376l.477.09c.027-.055.05-.083.05-.083"/><path fill="#9c0f22" d="M16.219 22.758c.062.222.074.445.05.668l.184.035a3.97 3.97 0 00-.09-1.313l-.441-.085c.129.234.23.472.297.695m-6.121-.59c.164-.39.566-.746 1.062-1.031l-.355-.07c-.496.331-.907.687-1.043 1 0 0-.024.027-.051.081l.375.075a2.93 2.93 0 00.012-.055"/><path fill="#b2162e" d="M15.953 23.055c.027.105.031.21.027.316l.29.055a1.762 1.762 0 00-.051-.668 3.609 3.609 0 00-.297-.695l-.516-.098c.254.348.461.726.547 1.09m-5.855-.887l-.012.055.504.097c.223-.492.652-.836 1.137-1.074l-.567-.11c-.496.286-.898.641-1.062 1.032"/><path fill="#c7152f" d="M12.59 21.414l-.863-.168c-.485.238-.915.582-1.137 1.074l.574.114c.316-.57.863-.872 1.426-1.02m2.98 1.876l.41.081c.004-.105 0-.21-.027-.316-.086-.364-.293-.742-.547-1.09l-.379-.078c.29.347.543.84.543 1.402"/><path fill="#bd0f28" d="M13.363 21.887c1.012-.075 1.266.41 1.371.836.032.125.086.27.121.43l.715.136c0-.562-.254-1.055-.543-1.402l-2.437-.473c-.563.148-1.11.45-1.426 1.02l.469.09c.308-.43.972-.579 1.73-.637"/><path fill="#cf0c2e" d="M13.793 22.785a.472.472 0 01.25.207l.812.16c-.035-.16-.09-.304-.12-.43-.106-.425-.36-.91-1.372-.835-.758.058-1.422.207-1.73.636l.828.16c.406-.171 1.055-.015 1.332.102"/><path fill="#bd0f28" d="M13.793 22.785c-.277-.117-.926-.273-1.332-.101l1.582.308a.472.472 0 00-.25-.207"/><path fill="#6c1325" d="M11.531 35.473c.094-.196.39-.457.785-.727l-.629-.125c-.28.262-.507.55-.628.856-.04.101-.075.199-.102.3l.371.07a1.43 1.43 0 01.203-.374m7.192 1.812l.476.094a6.255 6.255 0 000-1.297l-.61-.117c.102.379.161.824.134 1.32"/><path fill="#8a091f" d="M18.547 37.25l.176.035a4.205 4.205 0 00-.133-1.32l-.133-.028c.102.415.133.868.09 1.313m-6.692-1.395c.137-.312.547-.667 1.043-.996l-.582-.113c-.394.27-.691.531-.785.727 0 0-.105.125-.203.375l.477.093a.438.438 0 01.05-.086"/><path fill="#9c0f22" d="M18.313 36.55a1.6 1.6 0 01.05.665l.184.035a3.97 3.97 0 00-.09-1.313l-.441-.085c.129.234.23.472.297.699m-6.122-.594c.164-.39.567-.742 1.063-1.031l-.356-.067c-.496.328-.906.684-1.043.996 0 0-.023.028-.05.086l.375.075.011-.059"/><path fill="#b2162e" d="M18.047 36.844c.027.105.031.21.027.316l.29.055a1.6 1.6 0 00-.052-.664 3.538 3.538 0 00-.296-.7l-.512-.097c.25.348.457.73.543 1.09m-5.856-.887l-.011.059.504.097c.226-.496.656-.84 1.136-1.074l-.566-.113c-.496.289-.899.64-1.063 1.031"/><path fill="#c7152f" d="M14.684 35.207l-.864-.168c-.48.234-.91.578-1.136 1.074l.578.11c.312-.567.863-.871 1.422-1.016m2.98 1.871l.41.082c.004-.105 0-.21-.027-.316-.086-.36-.293-.742-.543-1.09l-.383-.074c.29.347.543.84.543 1.398"/><path fill="#bd0f28" d="M15.457 35.68c1.012-.078 1.266.406 1.371.832.031.125.086.273.121.43l.715.136c0-.558-.254-1.05-.543-1.398l-2.437-.473c-.559.145-1.11.45-1.422 1.016l.468.093c.305-.43.97-.578 1.727-.636"/><path fill="#cf0c2e" d="M15.887 36.574a.46.46 0 01.25.211l.812.156c-.035-.156-.09-.304-.12-.43-.106-.425-.36-.91-1.372-.831-.758.058-1.422.207-1.727.636l.825.16c.406-.171 1.054-.019 1.332.098"/><path fill="#bd0f28" d="M15.887 36.574c-.278-.117-.926-.27-1.332-.097l1.582.308a.46.46 0 00-.25-.21"/><path fill="#6c1325" d="M11.5 29.05v.485h.008v-.484H11.5"/><path fill="#8a091f" d="M11.5 28.871v.18h.008v-.18H11.5"/><path fill="#9c0f22" d="M11.5 28.684v.187h.008v-.187H11.5"/><path fill="#b2162e" d="M11.5 28.39v.294h.008v-.293H11.5"/><path fill="#c7152f" d="M11.5 27.973v.418h.008v-.422l-.008.004"/><path fill="#bd0f28" d="M11.5 27.246v.727l.008-.004v-.727l-.008.004"/><path fill="#6c1325" d="M19.188 24.023l-.34-.793c-.516-.28-1.11-.546-1.676-.675l.254.59a12.1 12.1 0 011.762.878m1.429 3.809c-.035.207-.242.68-.668 1.172l.246.57c.422-.355.746-.742.918-1.086l-.46-1.066a2.74 2.74 0 01-.036.41"/><path fill="#8a091f" d="M20.09 28.64c-.059.083-.125.16-.195.239l.054.125c.426-.492.633-.965.668-1.172a2.74 2.74 0 00.035-.41l-.207-.477c.04.621-.043 1.262-.355 1.696m-2.664-5.496l.234.543c.66.269 1.356.664 1.813.996l-.285-.66a12.14 12.14 0 00-1.762-.88"/><path fill="#9c0f22" d="M20.055 26.184c.191.738.004 1.597-.34 2.28l.18.415a2.86 2.86 0 00.195-.238c.312-.434.394-1.075.355-1.696l-.972-2.261a9.345 9.345 0 00-1.813-.997l.145.336c1.043.508 2.078 1.493 2.25 2.16"/><path fill="#b2162e" d="M19.703 26.14c.16.262.078 1.083-.195 1.844l.207.48c.344-.683.531-1.542.34-2.28-.172-.668-1.207-1.653-2.25-2.16l.226.53c.864.493 1.524 1.337 1.672 1.587"/><path fill="#c7152f" d="M19.414 26.805c.047.168.035.476-.059.82l.153.36c.273-.762.355-1.583.195-1.844-.148-.25-.808-1.094-1.672-1.586l.352.812c.594.52.965 1.207 1.031 1.438"/><path fill="#bd0f28" d="M19.414 26.805c-.066-.23-.437-.918-1.031-1.438l.972 2.258c.094-.344.106-.652.06-.82"/><path fill="#6c1325" d="M12.777 28.668v.621l.008-.004v-.62l-.008.003"/><path fill="#8a091f" d="M12.777 28.531v.137l.008-.004v-.137l-.008.004"/><path fill="#9c0f22" d="M12.777 28.082v.45l.008-.005v-.453l-.008.008"/><path fill="#b2162e" d="M12.777 27.559v.523l.008-.008v-.523l-.008.008"/><path fill="#c7152f" d="M12.777 27.168v.39l.008-.007v-.39l-.008.007"/><path fill="#6c1325" d="M23.121 31.43c.168.89-.805 2.152-1.375 2.746l-.379 1.105c.055-.023.11-.047.16-.074.868-.477 1.473-1.773 1.77-2.21.293-.434.484-.974.348-1.599a13.468 13.468 0 00-.422-1.515l-.285.816c.082.27.144.52.183.73"/><path fill="#8a091f" d="M22.77 31.96c-.036.376-.364 1.099-.852 1.716l-.172.5c.57-.594 1.543-1.856 1.375-2.746a6.814 6.814 0 00-.183-.73l-.231.679c.05.246.074.453.063.582"/><path fill="#9c0f22" d="M22.77 31.96a2.254 2.254 0 00-.063-.581l-.789 2.297c.488-.617.816-1.34.852-1.715"/><path fill="#6c1325" d="M14.059 27.488v1.16l.004-.007v-1.168l-.004.015"/><path fill="#8a091f" d="M14.059 26.969v.52l.004-.016v-.528l-.004.024"/><path fill="#e56c25" d="M6.426 31c-.43-.668-.403-1.719-.106-2.414.117-.281.332-.488.54-.637l-.016-.086a1.608 1.608 0 00-.594.684c-.305.719-.336 1.816.113 2.508.25.386.719.664 1.285.718l-.02-.085c-.526-.06-.968-.325-1.202-.688"/><path fill="#f78d35" d="M6.762 29.555a1.55 1.55 0 01.281-.711l-.184-.895c-.207.149-.421.356-.539.637-.297.695-.324 1.746.106 2.414.234.363.676.629 1.203.688l-.203-.993c-.438-.183-.742-.57-.664-1.14"/><path fill="#f78d35" d="M6.762 29.555c-.078.57.226.957.664 1.14l-.383-1.851a1.55 1.55 0 00-.281.71"/><path fill="#ee7c2d" d="M7.426 30.695c-.39-.164-.676-.492-.676-.965a1.55 1.55 0 01.293-.887l.383 1.852"/><path fill="#e56c25" d="M10.672 24.668c.297.047.535.156.723.3l.015-.077a1.672 1.672 0 00-.73-.293s-.254-.024-.563.043l-.012.074c.305-.07.567-.047.567-.047m.09 3.453a1.971 1.971 0 01-1.235-.187l-.011.074a2.046 2.046 0 001.304.176l.016-.075-.074.012"/><path fill="#f78d35" d="M10.105 24.715l-.136.765c.285-.175.55-.171.55-.171a.86.86 0 01.754.343l.122-.683a1.564 1.564 0 00-.723-.301s-.262-.023-.567.047m.176 2.723a1.542 1.542 0 01-.601-.352l-.153.848a1.98 1.98 0 001.235.187l.074-.012.133-.75a.887.887 0 01-.688.078"/><path fill="#e56c25" d="M10.281 27.438a.887.887 0 00.688-.079l.304-1.707a.86.86 0 00-.753-.343s-.266-.004-.551.171l-.29 1.606c.16.156.372.277.602.352"/><path fill="#e36014" d="M10.465 26.875c-.16 0-.305-.117-.395-.266-.156-.257-.027-.41.106-.586.082-.109.136-.132.168-.132.015 0 .027.007.027.007s.07-.02.164-.02.215.02.309.102c.187.16.297.344-.008.692-.129.144-.254.203-.371.203"/><path fill="#e56c25" d="M18.813 24.469a1.78 1.78 0 01.64-.582l-.07-.047a1.82 1.82 0 00-.637.586s-.144.246-.223.582l.067.05c.074-.343.223-.59.223-.59m3.484 1.544c-.152.511-.438.89-.77 1.136l.07.051c.337-.258.618-.648.774-1.168a.288.288 0 00.016-.054l-.07-.047c-.005.027-.012.05-.02.082"/><path fill="#f78d35" d="M18.59 25.059l.7.496c-.04-.371.089-.63.089-.63a.938.938 0 01.7-.593l-.626-.445a1.787 1.787 0 00-.64.582s-.149.246-.223.59m2.797 1.105c-.18.195-.403.348-.633.434l.773.55c.332-.246.618-.625.77-1.136.008-.032.015-.055.02-.082l-.68-.489a.979.979 0 01-.25.723"/><path fill="#e56c25" d="M21.387 26.164a.979.979 0 00.25-.723l-1.559-1.109a.938.938 0 00-.7.594s-.128.258-.089.629l1.465 1.043c.23-.086.453-.239.633-.434"/><path fill="#e36014" d="M20.39 25.988c-.273 0-.355-.183-.46-.386-.117-.215-.032-.25-.032-.25s.055-.325.301-.434a.64.64 0 01.258-.07c.152 0 .3.097.43.402.203.473-.094.7-.426.734-.023 0-.047.004-.07.004"/><path fill="#e56c25" d="M7.738 35.543a1.55 1.55 0 01.57-.512l-.062-.047a1.679 1.679 0 00-.566.52s-.13.219-.196.52l.059.042c.066-.3.195-.523.195-.523m3.094 1.367c-.137.453-.39.793-.684 1.012l.063.043a2.01 2.01 0 00.684-1.035c.007-.016.007-.032.015-.051l-.062-.04a.43.43 0 01-.016.071"/><path fill="#f78d35" d="M7.543 36.066l.621.442c-.035-.328.078-.563.078-.563a.84.84 0 01.621-.523l-.554-.39a1.55 1.55 0 00-.57.511s-.13.223-.196.523m2.48.981c-.16.176-.355.308-.562.383l.687.492c.293-.219.547-.559.684-1.012.008-.023.012-.047.016-.07l-.606-.434a.865.865 0 01-.219.64"/><path fill="#e56c25" d="M10.023 37.047a.865.865 0 00.22-.64l-1.38-.985a.84.84 0 00-.62.523s-.114.235-.079.563l1.297.922c.207-.075.402-.207.562-.383"/><path fill="#e36014" d="M9.14 36.89c-.242 0-.316-.163-.41-.34-.101-.19-.027-.222-.027-.222s.05-.289.27-.387a.54.54 0 01.222-.058c.137 0 .27.086.383.355.18.414-.082.621-.375.649-.023.004-.043.004-.062.004"/><path fill="#e56c25" d="M11.695 34.074a1.74 1.74 0 01.102-.86l-.086.013a1.805 1.805 0 00-.094.863s.051.277.215.582l.086-.008a2.09 2.09 0 01-.223-.59m3.637-1.136c.223.488.258.96.172 1.363l.086-.008a2.257 2.257 0 00-.211-1.438l-.086.008a.445.445 0 01.039.075"/><path fill="#f78d35" d="M11.918 34.664l.852-.086a1.28 1.28 0 01-.352-.531.947.947 0 01.14-.906l-.761.074c-.098.246-.14.531-.102.86 0 0 .051.284.223.59m2.832-1.013a1.69 1.69 0 01-.191.746l.945-.097a2.177 2.177 0 00-.211-1.438l-.832.082a.994.994 0 01.289.707"/><path fill="#e56c25" d="M14.75 33.652a.994.994 0 00-.29-.707l-1.901.196a.947.947 0 00-.141.906s.078.277.352.531l1.789-.18a1.69 1.69 0 00.191-.746"/><path fill="#e36014" d="M13.621 34.285c-.11 0-.219-.047-.34-.09-.176-.07-.191-.133-.191-.16.258.05.523.074.793.074h.066a.069.069 0 01-.015.02c-.11.117-.211.156-.313.156"/><path fill="#e56c25" d="M19.637 31.137c-.348.472-1.051 1.21-2.285.804l-.063.075c1.309.449 2.047-.332 2.414-.825.293-.39.754-1.52.3-2.511l-.062.078c.41.945-.027 2.008-.304 2.379"/><path fill="#f78d35" d="M19.11 30.664c-.169.277-.65.52-1.137.516l-.621.761c1.234.407 1.937-.332 2.285-.804.277-.371.715-1.434.304-2.38l-.566.7c.063.461-.11.95-.266 1.207"/><path fill="#f78d35" d="M19.11 30.664c.156-.258.328-.746.265-1.207l-1.402 1.723c.488.004.968-.239 1.136-.516"/><path fill="#ee7c2d" d="M17.992 31.18h-.02l1.403-1.723c.008.066.012.137.012.207a2.066 2.066 0 01-.285 1.012v.004c-.176.27-.637.5-1.11.5"/><path fill="#e56c25" d="M12.477 21.102c.39-.368 1.14-.922 2.195-.36l.066-.058c-1.11-.614-1.902-.028-2.312.359-.328.309-.926 1.25-.672 2.219l.07-.059c-.222-.918.344-1.808.653-2.101"/><path fill="#f78d35" d="M12.879 21.613c.195-.222.668-.367 1.11-.281l.683-.59c-1.055-.562-1.805-.008-2.195.36-.309.293-.875 1.183-.653 2.101l.621-.539c.016-.43.25-.84.434-1.05"/><path fill="#f78d35" d="M12.879 21.613c-.184.211-.418.621-.434 1.051l1.543-1.332c-.441-.086-.914.059-1.11.281"/><path fill="#ee7c2d" d="M12.445 22.664c.016-.43.25-.84.434-1.05.156-.18.492-.305.844-.305.09 0 .18.007.265.023l-1.543 1.332"/><path fill="#e56c25" d="M16.504 38.652c-.613.106-1.695.157-2.344-1.062l-.101.012c.671 1.304 1.812 1.25 2.457 1.14.507-.086 1.691-.61 2.07-1.703l-.106.016c-.378 1.023-1.492 1.515-1.976 1.597"/><path fill="#f78d35" d="M16.445 37.902c-.332.09-.879-.078-1.25-.441l-1.035.129c.649 1.219 1.73 1.168 2.344 1.062.484-.082 1.598-.574 1.976-1.597l-.945.117c-.289.402-.781.648-1.09.73"/><path fill="#f78d35" d="M16.445 37.902c.309-.082.801-.328 1.09-.73l-2.34.289c.371.363.918.531 1.25.441"/><path fill="#ee7c2d" d="M16.25 37.926c-.324 0-.75-.164-1.055-.465l2.34-.29c-.289.403-.781.65-1.09.731l-.004.004a.74.74 0 01-.191.02"/><path fill="#1e6505" d="M5.125 28.336s.176-.043.355-.156c.18-.114.61-.43.524-.535-.082-.106-.254-.118-.375-.122a6.037 6.037 0 01-.633-.101c-.144-.04-.488-.168-.406-.242.082-.075.16.02.101-.11-.05-.133-.18-.25-.035-.297.145-.046.274-.093.38-.015.1.078.296.148.241.074-.058-.078-.351-.203-.422-.383-.07-.183-.015-.297.028-.27.039.028.246.145.21.048-.034-.098-.07-.192-.034-.34.03-.153.043-.235.117-.23.074.007.21.116.246.062.035-.051-.012-.192.101-.149.11.043.082.04.118.184.03.144.054.191.097.117.043-.074.09-.215.133-.207.043.012.07-.008.02-.11-.051-.105-.149-.292-.125-.429.027-.137.07-.21.129-.082.062.129.093.082.101-.027.004-.11.117-.34.156-.356.035-.015.114.07.153.156.043.09.144.47.129.305-.016-.164.011-.558.125-.64.117-.083.062.222.16.101.093-.121.234-.273.293-.227.058.047.097.258.152.239.055-.024.121-.059.117.039-.008.094-.125.441-.074.426.047-.016.25-.153.293-.075a.664.664 0 01.047.32c-.016.048.148-.007.129.075-.016.078.004.11-.16.246-.164.137-.286.29-.47.582-.183.293-.398.715-.484.816-.085.102.223-.28.415-.488.195-.207.625-.508.683-.453.055.055.027.094.117.09.09-.004.336-.02.34.055 0 .074-.062.246-.117.293-.05.05-.098.105-.04.105.06-.004.173-.027.15.04a.476.476 0 01-.208.257c-.12.058-.41.133-.363.168.047.039.285-.027.39.055.11.082.192.128.137.187-.054.055-.199.188-.242.2-.047.011-.129.058-.05.085.078.028.117.09.058.113-.062.024-.27.137-.605.02-.336-.121-.793-.195-.887-.152-.094.043-.406.402-.813.672 0 0-.226.16-.402.066"/><path fill="#288707" d="M6.023 27.707s.086-.187.204-.477l.09-.238c.027-.082.062-.172.093-.265.016-.043.027-.094.043-.141a1.56 1.56 0 00.04-.145l.07-.304.257-1.117.117-.512s-.039.207-.101.512c-.063.308-.14.718-.223 1.128-.02.102-.039.204-.062.305-.012.05-.02.102-.035.152l-.04.145c-.027.094-.058.184-.085.27-.032.085-.059.164-.086.238-.106.297-.188.492-.188.492-.008.027-.039.04-.066.027a.056.056 0 01-.028-.066v-.004"/><path fill="#288707" d="M6.113 27.582l-.027-.082c-.024-.055-.05-.129-.086-.215l-.063-.14-.035-.075a.437.437 0 00-.039-.078c-.011-.027-.027-.055-.039-.082-.02-.023-.031-.05-.05-.078-.028-.055-.07-.102-.106-.152l-.059-.078a.446.446 0 01-.054-.075c-.032-.054-.067-.105-.094-.16-.027-.055-.055-.105-.078-.156-.024-.047-.043-.094-.063-.14-.039-.087-.066-.16-.09-.212-.015-.05-.027-.082-.027-.082l.031.082c.024.051.051.125.094.211l.067.137c.023.05.05.098.082.152.027.051.062.102.093.153.016.027.04.05.059.078l.059.07c.039.05.082.102.113.156.015.028.031.051.05.079.016.027.028.054.044.078.015.027.027.054.043.082l.035.074c.023.047.047.094.066.14a4.108 4.108 0 01.121.294l-.047.019m.055-.137s.031-.011.078-.035c.05-.02.121-.05.207-.09.043-.02.086-.043.133-.066.047-.027.098-.05.148-.082.051-.027.098-.063.149-.098.047-.035.097-.07.148-.105.055-.035.102-.074.157-.106.05-.035.101-.066.148-.101.098-.063.187-.121.27-.172l.261-.164s-.105.066-.258.172c-.078.05-.168.113-.265.18-.047.035-.094.066-.145.1-.05.036-.101.075-.152.11-.047.035-.098.075-.149.11a1.167 1.167 0 01-.148.105c-.047.031-.098.059-.145.086a2.267 2.267 0 00-.132.07c-.086.04-.157.075-.203.098-.051.02-.082.035-.082.035l-.02-.047"/><path fill="#288707" d="M6.656 27.219s.067.027.168.054c.051.016.11.032.172.04a.274.274 0 00.098.003c.031-.003.066-.011.101-.015l.106-.012c.035 0 .07-.004.105-.004l.18-.012c.105 0 .176-.003.176-.003s-.07.003-.176.015c-.106.008-.246.02-.383.04l-.105.023a.476.476 0 01-.106 0c-.066-.004-.129-.02-.18-.032a2.318 2.318 0 01-.171-.05l.015-.047m-.144-.824l-.012-.067c-.008-.039-.016-.098-.035-.164-.031-.137-.074-.32-.121-.504-.043-.183-.09-.363-.117-.504-.032-.136-.051-.226-.051-.226l.058.226c.032.137.086.317.137.5.047.18.098.364.137.496.02.07.027.13.039.168.008.04.016.063.016.063l-.051.012m.074-.368s.05-.043.121-.109c.035-.031.074-.07.117-.11l.067-.066c.023-.023.046-.047.066-.07.02-.024.043-.047.063-.07l.058-.07c.035-.052.07-.095.102-.134l.097-.125-.09.133a2.38 2.38 0 00-.097.133c-.016.023-.031.05-.055.074-.02.028-.039.051-.058.075-.02.027-.043.05-.063.074l-.066.07c-.04.043-.078.086-.11.117-.07.07-.113.117-.113.117l-.04-.039m-.651 1.09s.023-.078.054-.199c.008-.031.012-.066.02-.098a.976.976 0 00.02-.113.236.236 0 00.007-.059c.004-.02.004-.039.004-.058.004-.02.004-.04.008-.063l-.004-.058c0-.043-.004-.086-.008-.125 0-.043-.004-.082-.008-.121-.004-.078-.011-.149-.015-.211-.008-.125-.016-.211-.016-.211s.012.086.024.207l.023.215c.004.039.012.078.016.117l.011.125.004.062c0 .024-.004.043-.004.063 0 .023 0 .043-.004.062 0 .02-.003.04-.003.059a.99.99 0 01-.016.113c-.004.04-.012.07-.02.102-.023.125-.043.203-.043.203l-.05-.012m.07.133s-.012.004-.04.004c-.015.004-.03.008-.046.004h-.059l-.07-.012c-.023-.004-.05-.008-.074-.016a1.972 1.972 0 00-.156-.05c-.051-.024-.106-.043-.153-.063-.05-.015-.093-.035-.133-.05-.078-.036-.128-.055-.128-.055l.132.047c.04.011.086.027.133.043.05.02.102.035.156.05.028.012.055.016.079.024.027.008.054.012.078.02.027.007.047.007.074.011a.34.34 0 00.062.008c.02 0 .04 0 .055-.004a.06.06 0 00.04-.004.06.06 0 00.034-.008l.016.051"/><path fill="#1e6505" d="M19.484 22.484s-.101-.148-.273-.277c-.168-.129-.613-.418-.684-.305-.07.118-.02.282.016.395.035.117.113.484.129.633.02.148.015.511-.082.46-.098-.046-.035-.152-.14-.054-.106.098-.169.258-.262.137-.098-.118-.184-.223-.149-.348.035-.125.035-.332-.02-.254-.05.082-.062.399-.21.531-.145.13-.27.118-.258.067.012-.047.05-.282-.031-.211-.082.066-.153.129-.305.152-.152.024-.238.04-.258-.031-.02-.07.035-.238-.027-.25-.059-.016-.176.074-.176-.043.004-.121.008-.094.133-.176.125-.082.16-.117.074-.133-.086-.015-.234-.007-.238-.05-.008-.047-.035-.067-.114.02-.078.085-.218.241-.359.265-.137.027-.219.011-.121-.09.098-.102.047-.117-.059-.082-.105.031-.363.008-.39-.024-.028-.027.027-.128.093-.199.067-.07.391-.3.243-.226-.149.07-.532.187-.649.109-.117-.082.192-.14.043-.184-.148-.05-.336-.125-.316-.199.023-.07.207-.18.168-.222-.04-.047-.098-.098-.004-.125.09-.028.46-.04.426-.079-.036-.043-.23-.183-.172-.25a.652.652 0 01.285-.156c.047-.004-.059-.137.02-.148.081-.012.105-.043.288.062.184.106.372.164.711.235.336.07.809.125.93.168a7.75 7.75 0 01-.601-.22c-.262-.105-.692-.402-.66-.476.027-.074.074-.062.038-.144-.03-.078-.132-.309-.066-.336a.58.58 0 01.316.004c.063.03.133.058.11.004-.024-.059-.086-.153-.012-.157.07 0 .211.016.313.106.097.094.265.336.285.277.02-.055-.13-.254-.09-.383.043-.129.055-.222.129-.191.074.031.246.121.273.156.028.035.102.098.098.016 0-.082.043-.14.09-.094.043.05.218.207.226.559.004.355.094.812.172.886.074.07.52.239.914.52 0 0 .227.156.203.355"/><path fill="#288707" d="M18.582 21.863s-.21-.011-.523-.02h-.25c-.09 0-.184 0-.282.005a1.81 1.81 0 01-.148.007c-.05.004-.098.012-.149.016a8.365 8.365 0 00-.308.043l-1.14.152-.52.067s.207-.031.515-.082c.313-.051.723-.121 1.137-.188.102-.02.203-.039.305-.05.054-.008.105-.016.156-.02.05-.008.098-.012.148-.016.098-.007.192-.007.286-.015.09 0 .171-.004.25-.004.316-.004.527.004.527.004.027 0 .05.023.047.05a.05.05 0 01-.051.051"/><path fill="#288707" d="M18.43 21.824s-.024.024-.067.059c-.043.035-.101.09-.172.152-.035.031-.07.07-.109.11l-.059.058c-.02.02-.039.043-.058.063-.02.023-.04.043-.059.066-.02.023-.039.05-.058.074-.043.047-.07.102-.106.153l-.05.082a.352.352 0 01-.055.078c-.04.05-.075.101-.117.144-.04.043-.075.09-.114.125-.039.04-.074.078-.11.11l-.167.156c-.043.039-.067.058-.067.058s.024-.019.063-.058c.04-.04.098-.094.164-.16.035-.035.07-.074.106-.114.039-.039.078-.082.113-.128.043-.043.074-.094.113-.145a.415.415 0 00.05-.078l.048-.082c.035-.055.062-.11.105-.16.02-.024.035-.051.055-.075l.058-.07c.02-.02.04-.043.06-.066l.058-.059c.039-.043.074-.078.11-.113.065-.067.124-.121.163-.16.043-.035.067-.059.067-.059l.035.04m-.149-.005s-.023-.023-.058-.062c-.04-.04-.09-.094-.157-.156a2.763 2.763 0 00-.109-.106c-.039-.035-.082-.074-.129-.105a1.2 1.2 0 00-.14-.106l-.157-.105-.152-.106-.145-.105c-.093-.07-.18-.133-.257-.192l-.247-.187.254.183c.075.055.164.118.258.18.051.035.098.07.149.106.05.035.101.066.156.101.05.031.101.067.156.098.05.035.102.066.149.101.046.036.09.075.128.11.043.035.079.07.114.101.07.063.125.117.164.157a.998.998 0 00.062.058l-.039.035"/><path fill="#288707" d="M17.898 21.441s0-.066-.003-.171c-.008-.051-.012-.114-.028-.176a.295.295 0 00-.031-.094c-.016-.027-.035-.059-.05-.09a1.803 1.803 0 01-.048-.098.635.635 0 00-.043-.09 4.11 4.11 0 01-.07-.167l-.066-.164.074.16c.043.097.105.226.176.344.015.03.035.058.054.09a.36.36 0 01.04.1c.019.063.027.126.035.18.011.106.011.176.011.176h-.05m-.723.43l-.055.035c-.035.02-.086.047-.144.09l-.426.29c-.156.1-.309.21-.43.284a22.28 22.28 0 01-.195.13s.074-.055.191-.134c.117-.082.266-.195.418-.304.152-.11.305-.219.418-.305.059-.043.11-.07.14-.094l.055-.035.028.043m-.367.055l-.145-.07a1.256 1.256 0 00-.144-.07c-.028-.016-.06-.028-.086-.044l-.086-.035c-.032-.012-.063-.023-.09-.035a.522.522 0 00-.09-.027c-.055-.02-.11-.036-.156-.051l-.153-.047.157.039.16.043.086.023c.031.012.062.02.093.032.032.007.063.02.09.03l.086.036c.059.023.11.047.153.066l.148.067-.023.043m1.25.23s-.082.004-.207.02c-.032.004-.063.012-.098.015-.035.008-.074.012-.11.024-.019 0-.039.008-.058.012a.244.244 0 00-.059.015c-.02.004-.039.012-.058.016l-.059.023c-.035.016-.074.035-.113.051-.035.016-.074.035-.11.05a6.3 6.3 0 00-.19.09c-.118.051-.192.087-.192.087s.074-.04.187-.094c.055-.027.121-.063.188-.098.035-.015.07-.035.11-.055.034-.015.073-.035.112-.054l.055-.024.063-.023c.02-.004.039-.012.058-.016.02-.008.04-.011.059-.015.035-.012.074-.02.11-.028.034-.007.066-.011.097-.015.125-.024.21-.032.21-.032l.005.051m.097-.113l.02.035a.144.144 0 01.02.043l.019.059c.008.02.012.043.015.066.004.024.012.05.012.078v.078c.004.028.008.055.004.082v.164c0 .055-.004.102-.004.145-.004.082-.004.14-.004.14s-.004-.058-.004-.14c-.004-.043-.004-.09-.004-.14a2.305 2.305 0 01-.007-.165.583.583 0 01-.008-.082c-.004-.027-.008-.054-.008-.082a.454.454 0 00-.016-.07c-.003-.02-.011-.043-.015-.063-.008-.02-.016-.035-.024-.05-.004-.016-.011-.028-.015-.036a.86.86 0 00-.02-.03l.04-.032"/><path fill="#1e6505" d="M20.203 22.488s-.117.137-.195.332c-.078.2-.246.703-.113.742.128.036.273-.054.375-.12.101-.063.437-.231.574-.286.136-.054.492-.148.468-.043-.023.11-.14.075-.019.153.125.074.293.093.203.218-.09.121-.168.235-.297.23-.129-.003-.332.056-.238.087.09.027.398-.043.562.062.165.106.184.23.137.235-.05 0-.285.023-.2.086a.515.515 0 01.227.253c.063.141.102.22.04.254-.063.04-.239.032-.239.094.004.063.121.149.004.18-.113.031-.09.02-.199-.078-.113-.102-.156-.125-.152-.04.007.087.054.227.015.247-.043.015-.054.047.047.101.102.055.293.149.352.274.058.129.066.215-.055.144-.125-.07-.125-.015-.066.078.058.09.101.348.082.383-.02.031-.133.008-.22-.039-.085-.047-.39-.3-.28-.176.109.13.316.465.273.598-.047.133-.184-.148-.191.008-.004.156-.032.36-.106.355-.074 0-.226-.152-.262-.101-.03.047-.066.117-.117.035-.05-.082-.156-.434-.187-.39-.031.042-.113.269-.196.23a.637.637 0 01-.226-.235c-.012-.047-.117.094-.149.02-.03-.074-.066-.09-.011-.297.05-.203.062-.398.039-.746-.02-.344-.09-.813-.078-.945.011-.133-.02.359-.055.64-.035.282-.21.774-.29.766-.077-.012-.077-.059-.148-.008-.07.059-.261.215-.308.156a.544.544 0 01-.078-.308c.015-.07.023-.14-.028-.106-.046.035-.125.125-.144.055a.498.498 0 01.02-.332c.062-.117.253-.344.195-.348-.063-.004-.215.192-.348.184-.137-.004-.23.008-.219-.07.008-.079.051-.27.078-.305.032-.04.07-.125-.007-.102-.078.024-.149-.004-.114-.058.036-.055.141-.266.48-.367.345-.098.759-.301.81-.395.05-.09.097-.563.265-1.016 0 0 .094-.261.29-.289"/><path fill="#288707" d="M19.84 23.52s.043.203.117.507l.063.246c.027.086.046.176.078.27l.047.14c.015.047.035.094.054.141.035.094.078.192.117.285.164.387.325.774.446 1.063l.199.48-.215-.472c-.129-.29-.3-.668-.473-1.047-.043-.098-.09-.192-.128-.285-.02-.047-.043-.094-.063-.145-.016-.047-.031-.094-.05-.14-.032-.09-.06-.184-.087-.27-.027-.086-.05-.168-.074-.242-.082-.301-.133-.508-.133-.508a.056.056 0 01.04-.063.056.056 0 01.062.04"/><path fill="#288707" d="M19.844 23.676s.023.02.07.05l.191.126c.043.023.086.05.133.078.024.011.047.027.075.039.023.015.05.027.078.043.023.011.05.027.078.039l.086.035c.054.031.117.043.175.062l.094.028c.028.012.059.02.086.031.059.027.117.047.172.074.05.028.105.055.152.082.047.028.094.051.133.078a3.305 3.305 0 01.266.168l-.07-.047c-.051-.027-.118-.07-.2-.117-.043-.023-.086-.047-.136-.07-.047-.027-.098-.05-.153-.078-.054-.027-.11-.047-.168-.07a.604.604 0 00-.09-.028l-.09-.023c-.062-.02-.128-.035-.183-.059a1.942 1.942 0 01-.086-.035c-.031-.016-.059-.027-.082-.039-.027-.016-.055-.027-.082-.04-.023-.015-.05-.026-.074-.042a3.636 3.636 0 01-.332-.195 1.28 1.28 0 01-.074-.047l.03-.043m.032.144l-.043.075a5.228 5.228 0 00-.184.324c-.023.047-.05.097-.07.152-.027.05-.047.106-.066.164l-.059.176c-.02.059-.039.117-.062.176a19.156 19.156 0 00-.297.75s.043-.117.11-.29c.03-.09.07-.19.105-.3.02-.055.043-.11.062-.168l.059-.176c.015-.058.035-.117.054-.176.02-.058.036-.117.059-.172.023-.054.047-.105.07-.152l.067-.137a5.257 5.257 0 01.152-.273l.043.027"/><path fill="#288707" d="M19.613 24.29s-.07.015-.168.05c-.05.015-.105.039-.164.066a.599.599 0 00-.082.055c-.023.023-.047.05-.074.074-.027.024-.055.047-.078.07-.027.024-.055.043-.082.067-.05.039-.098.078-.14.113l-.141.106s.054-.047.136-.114c.078-.07.188-.16.285-.257.028-.028.047-.055.075-.079a.381.381 0 01.082-.062c.062-.035.117-.059.168-.078.097-.043.168-.063.168-.063l.015.051m.597.586s.02.016.048.043c.031.027.07.07.125.117l.39.336c.141.125.286.246.391.34l.176.156s-.074-.058-.18-.148c-.11-.094-.258-.211-.402-.328a27.516 27.516 0 01-.403-.325c-.058-.043-.097-.086-.128-.113l-.051-.043.035-.035m.152.34s-.015.062-.035.156c-.008.047-.02.102-.031.16a.782.782 0 01-.016.094l-.011.094-.012.093c0 .032-.004.063-.004.094-.004.059-.004.117-.008.164 0 .098-.004.16-.004.16s0-.062-.004-.16v-.257c.004-.032.004-.063.008-.098 0-.031 0-.063.008-.094l.012-.094c.004-.058.011-.117.02-.164l.026-.156.051.008m-.105-1.265a4.085 4.085 0 00.113.284c.016.032.031.067.05.102.009.016.017.035.028.05.008.02.02.036.031.055.008.016.02.032.032.051l.035.047a.95.95 0 00.078.098c.027.031.055.062.078.093l.137.165c.078.097.133.16.133.16s-.055-.063-.141-.157a4.216 4.216 0 00-.14-.156c-.028-.031-.055-.058-.083-.09l-.082-.093-.039-.051-.035-.051-.035-.055-.027-.05c-.02-.036-.04-.067-.055-.102a1.795 1.795 0 01-.043-.09c-.055-.113-.082-.195-.082-.195l.047-.016m-.133-.066s.008-.012.027-.031c.012-.008.024-.02.04-.028a.243.243 0 01.046-.035c.02-.008.04-.02.063-.031.02-.008.047-.024.07-.028a.62.62 0 00.078-.027l.078-.023c.055-.012.11-.028.16-.04.051-.015.098-.023.137-.035.082-.02.137-.03.137-.03l-.133.038-.137.043c-.05.016-.101.032-.156.047-.023.008-.05.02-.078.031-.023.008-.05.02-.074.028-.024.008-.043.02-.067.031-.02.012-.039.023-.054.035a1.086 1.086 0 01-.043.031l-.032.028c-.015.015-.023.027-.023.027l-.039-.031"/><path fill="#1e6505" d="M19.813 36.082s-.172-.05-.387-.035c-.211.012-.738.078-.715.21.02.138.168.227.266.294.101.062.398.293.507.394.11.102.344.38.239.407-.11.027-.13-.094-.145.046-.015.145.04.305-.11.278-.148-.028-.284-.051-.34-.172-.05-.117-.187-.274-.175-.18.012.098.207.348.184.54-.028.195-.133.265-.153.222-.023-.043-.144-.246-.164-.145-.02.106-.03.204-.133.317-.101.117-.156.183-.214.144-.063-.043-.13-.203-.184-.175-.059.03-.086.171-.16.082-.078-.09-.059-.075-.016-.22.043-.14.043-.194-.031-.148-.074.043-.18.145-.215.114-.035-.028-.066-.028-.07.09-.008.117-.012.328-.102.433-.086.11-.16.152-.152.012.012-.14-.04-.117-.098-.024-.058.09-.27.239-.308.235-.04-.004-.067-.117-.059-.211.004-.098.102-.48.035-.328-.066.148-.281.484-.422.5-.14.015.055-.227-.09-.168-.14.062-.335.125-.367.058-.027-.07.04-.273-.015-.28-.059-.009-.137-.013-.086-.09.055-.083.324-.333.273-.34-.05-.008-.293.011-.293-.079s.078-.273.114-.304c.039-.032-.133-.063-.079-.125.055-.063.051-.098.262-.141.207-.04.387-.113.692-.281.3-.168.695-.43.82-.477a9.461 9.461 0 01-.602.227c-.27.086-.789.14-.812.066-.028-.074.015-.098-.063-.137-.078-.039-.304-.148-.27-.214a.544.544 0 01.243-.2c.07-.02.137-.043.086-.07-.055-.027-.164-.059-.11-.11a.479.479 0 01.305-.12c.133.003.422.082.399.023-.024-.055-.262-.11-.317-.234-.05-.125-.101-.203-.027-.227.074-.027.266-.07.308-.059.047.008.145.008.086-.05-.054-.063-.058-.137.004-.13.067.009.305.013.54.278.234.266.597.555.703.563.101.004.55-.157 1.035-.196 0 0 .273-.03.383.137"/><path fill="#288707" d="M18.723 36.195s-.164.125-.407.32c-.062.051-.125.106-.195.165-.066.058-.14.117-.21.187-.036.031-.071.067-.106.102-.035.035-.07.07-.106.11-.07.073-.137.151-.207.23l-.77.855-.347.387s.133-.156.336-.399c.203-.238.473-.558.742-.879.067-.078.133-.16.203-.234.032-.039.067-.078.102-.117l.105-.106c.07-.07.14-.132.207-.195a16.757 16.757 0 01.59-.508c.024-.015.055-.015.07.008a.05.05 0 01-.007.074"/><path fill="#288707" d="M18.582 36.266l-.012.086c-.008.054-.02.132-.03.226l-.013.152a.581.581 0 00-.007.083c0 .027-.004.058-.004.09v.179c0 .063.011.125.02.188l.015.093c.004.032.012.063.012.094 0 .063.007.125.003.184 0 .062-.003.12-.007.172l-.012.156c-.008.093-.02.172-.027.226l-.012.09.012-.09c.003-.054.011-.133.02-.226.003-.051.007-.102.007-.157.004-.054.004-.109.004-.171 0-.059-.008-.118-.012-.18a.385.385 0 00-.012-.094l-.015-.094c-.008-.062-.024-.125-.024-.187-.004-.031-.004-.066-.008-.094v-.18c.004-.03.004-.058.008-.085 0-.055.004-.106.008-.153.008-.097.02-.176.024-.23l.011-.086.051.008m-.113.089l-.086-.007c-.055-.008-.13-.012-.223-.02a1.794 1.794 0 00-.148-.008c-.055 0-.11-.004-.168 0-.059 0-.117.008-.176.016a3.05 3.05 0 00-.188.02c-.058.003-.12.011-.183.015a2.998 2.998 0 01-.18.016l-.316.02-.313.019s.125-.008.313-.028c.094-.007.199-.015.316-.027.059-.008.117-.012.18-.02.058-.003.121-.015.18-.023l.183-.023c.063-.008.125-.02.184-.02.058-.004.113-.004.168-.004.054 0 .105.004.152.004a8.843 8.843 0 01.309.02l-.004.05"/><path fill="#288707" d="M17.93 36.316s-.043-.054-.117-.129c-.036-.035-.079-.078-.133-.117a.29.29 0 00-.082-.05l-.098-.036c-.035-.015-.066-.027-.098-.043-.03-.015-.062-.027-.093-.043a2.017 2.017 0 01-.16-.082l-.157-.078s.063.028.16.075a4.3 4.3 0 00.356.148c.031.012.066.02.101.031a.36.36 0 01.094.051c.055.035.102.078.14.113.079.074.126.13.126.13l-.04.03m-.269.794l-.02.062c-.011.039-.035.094-.05.16-.04.137-.09.32-.14.5-.052.18-.095.363-.137.496l-.067.227.059-.227c.035-.137.078-.32.12-.504.044-.183.09-.363.122-.504.015-.066.035-.125.047-.164.011-.039.015-.062.015-.062l.051.015m-.246.281l-.152.04c-.047.011-.102.023-.16.043l-.09.023a.787.787 0 00-.09.027c-.031.012-.059.024-.09.032a1.18 1.18 0 00-.086.035c-.055.023-.105.047-.152.066-.086.04-.145.063-.145.063s.055-.028.145-.07c.043-.02.09-.047.144-.075l.086-.035c.031-.012.059-.027.09-.039a.607.607 0 01.09-.031l.09-.032c.054-.019.11-.035.156-.05.09-.028.152-.043.152-.043l.012.047m1.102-.633s-.059.054-.145.148c-.02.024-.043.047-.062.074a.508.508 0 00-.07.09c-.016.012-.028.032-.04.047-.012.016-.02.031-.031.047l-.035.055-.028.05c-.02.04-.035.079-.054.114-.016.039-.035.074-.051.11-.031.07-.063.136-.09.194-.05.114-.086.188-.086.188l.078-.191c.028-.059.055-.125.082-.2.016-.035.032-.07.047-.109a1.63 1.63 0 01.051-.113l.027-.059.032-.055a.357.357 0 00.03-.05.571.571 0 01.036-.051c.023-.031.047-.063.07-.09a4.255 4.255 0 01.203-.238l.036.039m.004-.148s.011 0 .039.011c.011.004.027.008.043.02.011.007.03.02.05.03l.055.044a.75.75 0 01.11.11.894.894 0 01.058.062l.105.125.09.11c.051.066.086.108.086.108l-.093-.101c-.028-.031-.06-.07-.094-.11-.04-.035-.074-.078-.114-.117l-.058-.058a.75.75 0 01-.059-.055.28.28 0 00-.058-.043l-.051-.039c-.02-.008-.035-.02-.05-.023-.013-.012-.028-.012-.036-.016-.02-.008-.035-.012-.035-.012l.012-.047"/><path fill="#f0e7e1" d="M18.086 29.906a4.202 4.202 0 01-4.203 4.203 4.202 4.202 0 01-4.203-4.203 4.204 4.204 0 014.203-4.203 4.204 4.204 0 014.203 4.203"/><path fill="#e2d1c7" d="M13.883 34.11c-.793 0-1.54-.22-2.172-.602a4.2 4.2 0 01-2.031-3.602v-.074a4.204 4.204 0 011.554-3.187 4.146 4.146 0 00-.68 1.91 1.952 1.952 0 00-.081.187c-.036.098-.078.192-.11.29a4.092 4.092 0 00-.187 1.136c0 .367.043.715.125 1.027.16.633.457 1.13.746 1.489.285.363.586.574.777.722l.32.2-.304-.22a7.453 7.453 0 01-.332-.3c-.059-.066-.125-.133-.192-.207-.07-.074-.129-.164-.199-.254a3.762 3.762 0 01-.566-3.3 4.205 4.205 0 004.187 3.843 4.172 4.172 0 002.649-.941 4.19 4.19 0 01-3.446 1.882h-.058"/><path fill="#e2d1c7" d="M14.242 32.152c-.316 0-.629-.058-.918-.18-.066-.027-.133-.05-.195-.09-.063-.034-.121-.058-.191-.109-.055-.039-.102-.062-.165-.12a1.62 1.62 0 01-.171-.15 2.102 2.102 0 01-.465-.726 1.991 1.991 0 01.11-1.656c.128-.246.327-.476.562-.633.238-.156.507-.254.785-.281.058-.004.113-.008.172-.008a1.685 1.685 0 01.82.219l.047.023.012.008.015.012.02.012.074.05a1.425 1.425 0 01.41 1.793l-.047.086c-.004.008.008-.007-.015.024l-.004.008-.016.02-.023.03-.051.067c-.016.02-.031.043-.063.066-.05.047-.101.094-.152.137a8.899 8.899 0 01-.168.098 1.218 1.218 0 01-.723.105l-.175-.043c-.059-.016-.11-.05-.165-.074l-.078-.04-.023-.015-.008-.004-.012-.011-.03-.024c-.044-.035-.083-.058-.126-.113a1.033 1.033 0 01-.2-.301c-.015-.055-.038-.11-.05-.164l-.023-.172a.997.997 0 01.195-.621l.043-.055c.016-.02.043-.039.063-.058l.066-.055a.34.34 0 01.07-.043l.07-.039a.417.417 0 01.075-.027l.074-.024.074-.012c.04-.003.074-.007.11-.007.168 0 .328.05.464.148a.72.72 0 01.192.211l.035.063.023.066a.502.502 0 01.028.133.642.642 0 01-.145.488.53.53 0 01-.414.195h-.02a.515.515 0 01-.39-.187.433.433 0 01-.082-.383.406.406 0 01.215-.273.38.38 0 01.305.007c.09.043.144.122.164.2a.295.295 0 01-.028.21.239.239 0 01-.207.122h-.035c-.059-.012-.086-.035-.086-.035h-.004.004s.031.02.09.027h.016a.217.217 0 00.199-.125.253.253 0 00-.137-.348.363.363 0 00-.113-.02.276.276 0 00-.133.032.3.3 0 00-.16.223.349.349 0 00.074.293.41.41 0 00.3.128h.009a.396.396 0 00.312-.156.51.51 0 00.094-.375c-.008-.035-.012-.066-.027-.097-.008-.016-.012-.032-.02-.047l-.027-.043c-.016-.035-.04-.055-.059-.078-.016-.024-.059-.047-.09-.07a.619.619 0 00-.316-.087c-.035 0-.07 0-.102.008l-.058.012-.051.02c-.02.007-.035.011-.055.023l-.047.027c-.015.012-.03.02-.047.031l-.039.036-.039.035-.039.054a.754.754 0 00-.125.461l.02.121c.011.04.031.079.043.118a.852.852 0 00.136.195c.016.027.067.059.106.09l.047.035.008.004-.004-.004.062.027c.04.016.078.04.121.047l.133.031a.94.94 0 00.523-.094l.114-.07c.031-.03.062-.058.094-.086.015-.007.03-.03.046-.054l.075-.102.011-.015.004-.004h-.004l.036-.063a1.06 1.06 0 00-.114-1.11 1.237 1.237 0 00-.207-.198l-.074-.051-.02-.012-.007-.004-.035-.02c-.047-.023-.09-.046-.141-.062a1.187 1.187 0 00-.465-.09 1.234 1.234 0 00-.738.227c-.18.12-.317.285-.418.484a1.588 1.588 0 00.293 1.856c.039.043.078.07.12.105.032.035.099.07.15.106.034.027.097.054.144.082.05.03.105.05.16.074a1.944 1.944 0 001.363.035 2.013 2.013 0 00.735-.457l.062-.059.055-.066a.832.832 0 00.105-.137l.055-.078.027-.043.008-.008.008-.02c.121-.206.207-.429.266-.655.054-.23.07-.465.062-.7a2.478 2.478 0 00-.469-1.297 2.765 2.765 0 00-.468-.484l-.157-.105-.035-.028-.02-.011-.007-.004-.004-.004-.074-.04a2.542 2.542 0 00-.309-.156 3.055 3.055 0 00-1.183-.242c-.043 0-.09.004-.133.004a3.026 3.026 0 00-2.285 1.223l-.09.129-.047.062c-.004.012-.024.04-.031.059l-.075.129c-.046.086-.093.172-.129.261-.039.086-.082.172-.113.262-.023.07-.047.14-.066.207a3.633 3.633 0 01-.016-.36c0-.136.008-.276.02-.41.015-.03.03-.066.05-.097l.07-.14c.016-.024.02-.04.044-.075l.043-.066c.058-.086.101-.176.18-.262a3.278 3.278 0 011.035-.894c.414-.227.89-.375 1.386-.41.078-.008.157-.012.235-.012.425 0 .855.09 1.265.254.121.043.235.105.352.168l.086.046c.008.004 0-.003.02.012l.011.008.02.012.039.027.152.102c.227.171.418.355.586.574.16.219.297.457.394.719.094.257.157.53.172.808.016.277-.004.563-.066.836a3 3 0 01-.313.781l-.011.024-.004.011-.016.02-.027.043-.055.078c-.031.055-.082.113-.129.172l-.074.086-.074.078c-.051.05-.102.102-.16.145a2.38 2.38 0 01-1.523.55"/><path fill="#d5bdb0" d="M12.145 33.605l-.32-.199c-.192-.148-.493-.36-.778-.722a3.903 3.903 0 01-.746-1.489 4.068 4.068 0 01-.125-1.027 4.07 4.07 0 01.187-1.137c.032-.097.075-.191.11-.289.023-.062.05-.125.082-.187-.012.133-.02.273-.02.41 0 .12.004.242.016.36a4.15 4.15 0 00-.153.85c-.015.348.012.68.07.981.122.614.387 1.106.65 1.469.07.09.128.18.198.254.067.074.133.14.192.207.125.121.238.219.332.3l.305.22"/><path d="M28.26 27.574v-.125h.5c.226 0 .382-.062.468-.187.094-.125.14-.32.14-.594V19.84c0-.289-.046-.484-.14-.578a.507.507 0 00-.375-.14h-.594v-.11h6.875l.094 2.484h-.125l-.047-.562c-.043-.457-.133-.817-.266-1.078a1.158 1.158 0 00-.578-.563c-.261-.113-.62-.172-1.078-.172H31.76v3.563h1c.75 0 1.352.101 1.813.297.457.187.785.46.984.812.207.344.313.766.313 1.266 0 .492-.121.93-.36 1.312-.23.375-.601.672-1.11.891-.5.21-1.167.312-2 .312zm3.5-.125h.405c.282 0 .504-.07.672-.218.176-.145.297-.39.36-.735.07-.351.11-.836.11-1.453 0-.57-.04-1.02-.11-1.344-.074-.32-.196-.55-.36-.687-.168-.133-.398-.203-.687-.203h-.39zm8.286.251c-1.032 0-1.844-.282-2.438-.844-.594-.563-.89-1.407-.89-2.532s.285-1.96.859-2.515c.57-.563 1.41-.844 2.516-.844 1.03 0 1.835.281 2.421.844.594.555.891 1.39.891 2.515 0 1.125-.289 1.97-.86 2.532-.562.562-1.398.843-2.5.843zm.03-.126a.66.66 0 00.579-.296c.133-.196.234-.532.297-1 .062-.477.094-1.13.094-1.954 0-.82-.032-1.468-.094-1.937-.063-.469-.168-.8-.313-1a.667.667 0 00-.578-.297.662.662 0 00-.578.297c-.137.2-.234.531-.297 1-.054.469-.078 1.117-.078 1.937 0 .825.024 1.477.078 1.954.063.468.16.804.297 1a.695.695 0 00.594.296zm3.939 2.656v-.124h.078c.133 0 .266-.024.39-.063a.542.542 0 00.329-.234c.094-.117.14-.293.14-.531v-7.22c0-.3-.054-.507-.156-.624-.093-.113-.273-.172-.531-.172h-.016v-.125h3.032v1.64h.015c.102-.624.317-1.078.64-1.359.321-.289.735-.437 1.235-.437.727 0 1.285.289 1.672.86.383.562.578 1.39.578 2.483 0 1.118-.199 1.961-.593 2.532-.387.562-.97.843-1.75.843-.532 0-.934-.132-1.204-.406-.261-.281-.453-.71-.578-1.297h-.015c.007.25.015.508.015.766v2.516c0 .238.04.414.125.53a.522.522 0 00.328.235c.145.04.282.063.407.063h.312v.125zm4.25-2.921c.281 0 .484-.258.61-.781.132-.532.203-1.274.203-2.235 0-.875-.075-1.554-.22-2.047-.136-.488-.34-.734-.609-.734-.293 0-.527.258-.703.766-.168.5-.25 1.183-.25 2.046 0 .95.086 1.684.266 2.204.187.523.422.78.703.78zm15.618 2.781v-.312c-.032-.555-.118-.993-.25-1.313a1.236 1.236 0 00-.672-.687c-.313-.137-.727-.204-1.235-.204h-9.64v-.125h.125c.226 0 .41-.05.547-.156.144-.101.218-.304.218-.61v-4.655c0-.27-.074-.461-.218-.579-.137-.125-.32-.187-.547-.187h-.125v-.125h3.78v.125h-.046c-.18 0-.309.055-.39.156-.087.106-.126.309-.126.61v5.421h1.454v-5.421c0-.301-.047-.504-.141-.61a.466.466 0 00-.375-.156h-.047v-.125h3.453v.125h-.062c-.18 0-.309.055-.391.156-.074.106-.11.309-.11.61v5.421h1.438v-5.421c0-.301-.043-.504-.125-.61a.466.466 0 00-.375-.156h-.047v-.125h3.75v.125h-.125c-.23 0-.414.055-.547.156-.125.106-.187.309-.187.61v4.718c0 .25.035.434.11.547.081.106.238.156.468.156h.563v2.641zm-30.388 3.89a1.842 1.842 0 01-.469-.141v-.157h1.235v.157c-.055.023-.11.047-.172.078a1.887 1.887 0 01-.219.062l-1.094 2.453c-.074.2-.152.375-.234.532a2.07 2.07 0 01-.234.375.64.64 0 01-.25.203.514.514 0 01-.297.031.464.464 0 01-.063-.125 1.86 1.86 0 01-.062-.156c-.012-.063-.024-.117-.032-.172-.011-.05-.023-.098-.03-.14l.093-.141.562.14c.008-.008.024-.031.047-.062a.525.525 0 00.047-.094c.02-.04.035-.078.047-.11a.26.26 0 00.031-.109l-1.375-2.625c-.062-.02-.133-.039-.203-.062a1.045 1.045 0 01-.203-.078v-.157h1.453v.157a1.023 1.023 0 01-.219.078 3.388 3.388 0 01-.234.062l.922 1.828.11.344h.015l.11-.36zm2.565.812h1.063v.14a.532.532 0 01-.157.079c-.054.023-.125.046-.218.078-.125.148-.262.297-.407.453a22.83 22.83 0 01-.422.469c.07.085.157.18.25.28.094.106.18.216.266.329a26.584 26.584 0 00.547.656l.266.125v.14h-.641l-.188-.124a6.137 6.137 0 01-.453-.594 31.774 31.774 0 01-.406-.594h-.219v1.047c.07.012.141.027.203.047a.648.648 0 01.157.078v.14h-1.219v-.14c.094-.05.21-.094.36-.125v-2.219a1.094 1.094 0 01-.36-.125v-.14h1.125v.14a.53.53 0 01-.125.063c-.043.023-.09.043-.14.062v1.032l.25-.047c.144-.176.285-.336.421-.485.133-.144.258-.3.375-.468-.062-.032-.125-.055-.187-.078a.486.486 0 01-.14-.079zm2.58 3.859h-1.219v-.14c.125-.063.243-.11.36-.141v-3.266l-.36-.047v-.14c.114-.051.235-.094.36-.125s.242-.055.36-.078h.14v.625c.07-.188.176-.336.312-.453a.768.768 0 01.516-.172c.332 0 .586.109.766.328.175.219.265.574.265 1.062 0 .23-.031.438-.094.625a1.297 1.297 0 01-.25.485 1.25 1.25 0 01-.421.297 1.376 1.376 0 01-.516.093c-.137 0-.246-.011-.328-.031a.951.951 0 01-.25-.078v.875a.62.62 0 01.172.047c.062.02.125.05.187.094zm.297-3.594a.592.592 0 00-.437.172.97.97 0 00-.22.469v1.547a.618.618 0 00.22.094c.082.023.191.03.328.03a.578.578 0 00.328-.093.712.712 0 00.234-.265c.07-.114.125-.243.156-.391.04-.156.063-.328.063-.516 0-.156-.012-.297-.031-.422a1.118 1.118 0 00-.11-.328.588.588 0 00-.53-.297zm3.703 1.766v.219c0 .054.003.11.015.172l.375.062v.11c-.094.054-.2.101-.312.14a5.104 5.104 0 01-.313.078h-.14a1.213 1.213 0 01-.063-.281 3.085 3.085 0 01-.016-.344h-.03a.835.835 0 01-.266.438.67.67 0 01-.235.125.741.741 0 01-.312.062.765.765 0 01-.547-.203c-.137-.133-.203-.312-.203-.531 0-.164.03-.3.093-.406a.726.726 0 01.297-.266c.133-.062.301-.102.5-.125.196-.031.422-.055.672-.078.02-.156.024-.297.016-.422a.847.847 0 00-.063-.328.364.364 0 00-.156-.203.414.414 0 00-.266-.078 1.35 1.35 0 00-.171.015.629.629 0 00-.188.032l-.266.671h-.14a41.173 41.173 0 01-.094-.343 1.28 1.28 0 01-.047-.344 1.36 1.36 0 01.453-.203 2.07 2.07 0 01.578-.078c.188 0 .336.03.454.093a.603.603 0 01.359.485c.02.105.031.203.031.297 0 .23-.008.449-.015.656v.578zm-1.063.438a.6.6 0 00.234-.047.564.564 0 00.172-.141.757.757 0 00.188-.281v-.578c-.219 0-.399.011-.531.03a.922.922 0 00-.329.11.367.367 0 00-.156.172.827.827 0 00-.031.25c0 .156.035.277.11.36.081.085.195.125.343.125zm1.803-3.407a.34.34 0 01.078-.234.267.267 0 01.22-.094c.081 0 .148.031.202.094.063.062.094.14.094.234a.318.318 0 01-.094.235.27.27 0 01-.203.078c-.094 0-.168-.024-.219-.078a.34.34 0 01-.078-.235zm.89 0a.34.34 0 01.079-.234.267.267 0 01.219-.094c.082 0 .148.031.203.094.062.062.094.14.094.234a.318.318 0 01-.094.235.27.27 0 01-.203.078c-.094 0-.168-.024-.219-.078a.34.34 0 01-.078-.235zm.47 3.688h-1.22v-.14c.052-.032.102-.056.157-.079.063-.02.13-.035.203-.047v-2.172l-.36-.047v-.14c.102-.04.22-.078.345-.11.125-.039.25-.07.375-.093h.14v2.562a1.095 1.095 0 01.36.125zm1.749 0H45.3v-.14a.995.995 0 01.36-.126v-2.219a1.644 1.644 0 00-.188-.046.768.768 0 01-.172-.079v-.14h1.188v.14a1.066 1.066 0 01-.328.125v.97h1.218v-.97a.81.81 0 01-.328-.125v-.14h1.188v.14a.85.85 0 01-.36.125v2.22c.063.01.125.026.188.046.062.023.117.047.172.078v.14H47.05v-.14a.87.87 0 01.328-.125v-1.015H46.16v1.015c.07.012.132.027.187.047.05.023.098.047.14.078zm4.331-.391a.828.828 0 01-.328.328 1.05 1.05 0 01-.516.125c-.218 0-.414-.031-.578-.093a1.061 1.061 0 01-.39-.297 1.404 1.404 0 01-.25-.453 2.006 2.006 0 01-.078-.594c0-.469.113-.828.343-1.078.227-.25.54-.375.938-.375.176 0 .332.015.469.047.144.03.269.074.375.125a4.101 4.101 0 01-.063.421 1.9 1.9 0 01-.11.36h-.14l-.234-.656a.8.8 0 01-.094-.032.767.767 0 00-.172-.015c-.25 0-.445.093-.578.28-.137.18-.203.481-.203.907 0 .149.02.29.062.422.04.125.098.242.172.344a.93.93 0 00.297.25.93.93 0 00.422.094c.125 0 .234-.016.328-.047a.84.84 0 00.25-.141zm1.291-1.234c.063-.008.13-.02.203-.031.082-.008.196-.016.344-.016.3 0 .535.062.703.187.176.125.266.329.266.61a.792.792 0 01-.094.39.689.689 0 01-.234.282.993.993 0 01-.36.172c-.136.03-.289.046-.453.046-.094 0-.203-.007-.328-.015h-.906v-.14a.995.995 0 01.36-.126v-2.219a.814.814 0 01-.36-.125v-.14h1.187v.14a1.066 1.066 0 01-.328.125zm0 1.39c.04 0 .086.008.14.016h.157c.207 0 .367-.05.484-.156.125-.114.188-.281.188-.5a.687.687 0 00-.047-.266.404.404 0 00-.14-.172.702.702 0 00-.188-.093.972.972 0 00-.25-.032c-.055 0-.11.008-.172.016-.062 0-.121.008-.172.016zm3.523-2.515h1.063v.14a.532.532 0 01-.157.079c-.054.023-.125.046-.218.078-.125.148-.262.297-.407.453a22.83 22.83 0 01-.421.469c.07.085.156.18.25.28.093.106.18.216.265.329a26.584 26.584 0 00.547.656l.266.125v.14h-.641l-.187-.124a6.137 6.137 0 01-.454-.594 31.774 31.774 0 01-.406-.594h-.219v1.047c.07.012.141.027.204.047a.648.648 0 01.156.078v.14h-1.219v-.14c.094-.05.211-.094.36-.125v-2.219a1.094 1.094 0 01-.36-.125v-.14h1.125v.14a.53.53 0 01-.125.063c-.043.023-.09.043-.14.062v1.032l.25-.047c.144-.176.285-.336.421-.485.133-.144.258-.3.375-.468-.062-.032-.125-.055-.187-.078a.486.486 0 01-.14-.079zm1.408 0h1.172v.14a.865.865 0 01-.156.063 1.503 1.503 0 01-.188.062v1.516l-.046.516h.015l.219-.422 1.187-1.875h.735v.14a1.126 1.126 0 01-.36.125v2.22c.07.01.141.026.204.046a.648.648 0 01.156.078v.14h-1.172v-.14a1.74 1.74 0 01.344-.125v-1.578l.047-.437h-.032l-.203.406-1.172 1.875h-.75v-.14c.063-.032.118-.056.172-.079.063-.02.125-.035.188-.047v-2.219a.83.83 0 01-.36-.125zm3.378 0h1.172v.14a.865.865 0 01-.156.063 1.503 1.503 0 01-.187.062v1.516l-.047.516h.015l.22-.422 1.187-1.875h.734v.14a1.126 1.126 0 01-.36.125v2.22c.071.01.141.026.204.046a.648.648 0 01.156.078v.14h-1.172v-.14a1.74 1.74 0 01.344-.125v-1.578l.047-.437h-.031l-.204.406-1.171 1.875h-.75v-.14c.062-.032.117-.056.171-.079.063-.02.125-.035.188-.047v-2.219a.83.83 0 01-.36-.125zm1.516-.344a1.77 1.77 0 01-.453-.047.802.802 0 01-.281-.156.505.505 0 01-.156-.219.896.896 0 01-.032-.25.668.668 0 01.188-.11c.07-.019.148-.034.234-.046l.125.078v.484c.051.024.114.04.188.047.07.012.133.016.187.016h.188a.501.501 0 00.187-.047v-.5l.14-.078a.718.718 0 01.22.062.48.48 0 01.171.094.692.692 0 01-.046.25.539.539 0 01-.157.219.694.694 0 01-.265.156 1.721 1.721 0 01-.438.047zm0 0" fill="#fff"/></svg>